<?xml version="1.0" encoding="UTF-8" standalone="no"?>
<!-- Created with Inkscape (http://www.inkscape.org/) -->

<svg
   width="46.493141mm"
   height="49.751175mm"
   viewBox="0 0 46.49314 49.751175"
   version="1.1"
   id="svg1650"
   xmlns="http://www.w3.org/2000/svg"
   xmlns:svg="http://www.w3.org/2000/svg">
  <defs
     id="defs1647" />
  <g
     id="layer1"
     transform="translate(-172.71638,36.340158)">
    <path
       d="m 197.03643,-19.53766 v -0.0043 c -0.0173,4.83e-4 -0.0345,0.0017 -0.0519,0.0022 -0.0171,-4.82e-4 -0.0344,-0.0017 -0.0516,-0.0022 v 0.0043 c -1.56731,0.05737 -3.1221,0.443777 -4.54937,1.163077 -4.59156,2.31434 -6.04293,6.902043 -5.79514,10.7369382 -0.75063,-3.7445022 0.29842,-8.9304952 5.13972,-11.3704232 1.31373,-0.66217 2.74462,-1.017722 4.18708,-1.070512 v -0.0039 c 0.0159,2.4e-4 0.0318,0.0012 0.0477,0.0019 0.0159,-7.52e-4 0.0318,-0.0017 0.0475,-0.0019 v 0.0039 c 1.44269,0.05279 2.87357,0.408342 4.1873,1.070512 0.10318,0.05207 0.20466,0.105581 0.30445,0.160058 -1.11557,-0.417019 -2.28707,-0.646502 -3.46582,-0.68965 m 3.89371,-1.039657 c -1.54076,-0.776669 -3.21919,-1.19369 -4.91113,-1.255881 v -0.0046 c -0.0189,7.52e-4 -0.0374,0.0017 -0.056,0.0024 -0.0185,-7.52e-4 -0.0374,-0.0017 -0.0559,-0.0024 v 0.0046 c -1.69195,0.06219 -3.3704,0.479212 -4.91121,1.255881 -8.04848,4.056424 -7.16165,14.5843702 -3.99279,17.5948692 3.74041,3.553347 3.36655,4.5819168 3.64712,4.9560288 h 5.25688 0.11184 5.25686 c 0.28058,-0.374112 -0.0935,-1.4026818 3.64688,-4.9560288 3.16912,-3.010499 4.05594,-13.5384452 -3.99255,-17.5948692"
       style="fill:#ffffff;fill-opacity:1;fill-rule:nonzero;stroke:none;stroke-width:0.241053"
       id="path2653" />
    <g
       id="g2655"
       transform="matrix(0.24105203,0,0,-0.24105203,191.20525,7.712703)">
      <path
         d="M 0,0 C 0,0 0.408,-4.219 5.513,-8.074 H 19.737 33.962 C 39.067,-4.219 39.475,0 39.475,0 H 19.737 Z"
         style="fill:#ffffff;fill-opacity:1;fill-rule:nonzero;stroke:none"
         id="path2657" />
    </g>
    <g
       id="g2659"
       transform="matrix(0.24105203,0,0,-0.24105203,191.02057,4.077493)">
      <path
         d="M 0,0 V -7.274 H 20.504 41.007 V 0 H 20.504 Z"
         style="fill:#ffffff;fill-opacity:1;fill-rule:nonzero;stroke:none"
         id="path2661" />
    </g>
    <g
       id="g2663"
       transform="matrix(0.24105203,0,0,-0.24105203,195.963,11.334316)">
      <path
         d="M 0,0 C -4.805,0.017 -9.47,0.015 -9.448,-0.056 -6.661,-8.82 -0.838,-8.67 0,-8.601 0.838,-8.67 6.661,-8.82 9.448,-0.056 9.47,0.015 4.805,0.017 0,0"
         style="fill:#ffffff;fill-opacity:1;fill-rule:nonzero;stroke:none"
         id="path2665" />
    </g>
    <path
       d="m 197.38348,-36.340158 h -2.84105 v 8.228794 h 2.84105 z"
       style="fill:#ffffff;fill-opacity:1;fill-rule:nonzero;stroke:none;stroke-width:0.241053"
       id="path2667" />
    <g
       id="g2669"
       transform="matrix(0.24105203,0,0,-0.24105203,213.844,-29.406778)">
      <path
         d="m 0,0 -24.139,-24.139 8.334,-8.334 24.139,24.139 z"
         style="fill:#ffffff;fill-opacity:1;fill-rule:nonzero;stroke:none"
         id="path2671" />
    </g>
    <path
       d="m 210.98074,-8.5138348 h 8.22878 v -2.8410392 h -8.22878 z"
       style="fill:#ffffff;fill-opacity:1;fill-rule:nonzero;stroke:none;stroke-width:0.241053"
       id="path2673" />
    <g
       id="g2675"
       transform="matrix(0.24105203,0,0,-0.24105203,176.07308,-27.397851)">
      <path
         d="m 0,0 24.139,-24.139 8.334,8.334 L 8.334,8.334 Z"
         style="fill:#ffffff;fill-opacity:1;fill-rule:nonzero;stroke:none"
         id="path2677" />
    </g>
    <path
       d="m 172.71638,-8.5138348 h 8.22879 v -2.8410392 h -8.22879 z"
       style="fill:#ffffff;fill-opacity:1;fill-rule:nonzero;stroke:none;stroke-width:0.241053"
       id="path2679" />
  </g>
</svg>
