<?xml version="1.0" encoding="UTF-8" standalone="no"?>
<!-- Created with Inkscape (http://www.inkscape.org/) -->

<svg
   width="39.685127mm"
   height="39.686001mm"
   viewBox="0 0 39.685127 39.686001"
   version="1.1"
   id="svg1650"
   xmlns:inkscape="http://www.inkscape.org/namespaces/inkscape"
   xmlns:sodipodi="http://sodipodi.sourceforge.net/DTD/sodipodi-0.dtd"
   xmlns="http://www.w3.org/2000/svg"
   xmlns:svg="http://www.w3.org/2000/svg">
  <sodipodi:namedview
     id="namedview1652"
     pagecolor="#ffffff"
     bordercolor="#000000"
     borderopacity="0.25"
     inkscape:showpageshadow="2"
     inkscape:pageopacity="0.0"
     inkscape:pagecheckerboard="0"
     inkscape:deskcolor="#d1d1d1"
     inkscape:document-units="mm"
     showgrid="false" />
  <defs
     id="defs1647" />
  <g
     inkscape:label="Layer 1"
     inkscape:groupmode="layer"
     id="layer1"
     transform="translate(33.522755,22.136699)">
    <g
       id="g1239"
       transform="matrix(0.35277777,0,0,-0.35277777,29.436104,22.255268)"
       style="fill:#000000">
      <path
         d="m -91.845702,44.838107 c -3.107175,0 -5.625391,-2.518217 -5.625391,-5.622967 0,-3.109598 2.518216,-5.625391 5.625391,-5.625391 3.10475,0 5.625391,2.515793 5.625391,5.625391 0,3.10475 -2.520641,5.622967 -5.625391,5.622967 m 0,-18.000764 c -6.837238,0 -12.375378,5.54056 -12.375378,12.377797 0,6.83239 5.53814,12.372952 12.375378,12.372952 6.834813,0 12.372951,-5.540562 12.372951,-12.372952 0,-6.837237 -5.538138,-12.377797 -12.372951,-12.377797 m 23.626157,15.749154 h -4.818301 c -0.49201,2.770281 -1.5754,5.3297 -3.119293,7.544955 l 3.400441,3.400441 c 0.882224,0.882225 0.879801,2.302509 0,3.179885 l -1.589942,1.592367 c -0.882224,0.882224 -2.300085,0.882224 -3.182309,0.0048 l -3.400441,-3.405288 c -2.220103,1.548739 -4.777099,2.624859 -7.540108,3.119292 v 4.815878 c 0,1.243357 -1.008257,2.246766 -2.251611,2.246766 h -2.251611 c -1.243354,0 -2.249187,-1.003409 -2.249187,-2.246766 v -4.815878 c -2.763009,-0.494433 -5.322433,-1.570553 -7.537683,-3.119292 l -3.40044,3.405288 c -0.88223,0.877377 -2.30493,0.877377 -3.18473,0 l -1.58995,-1.592366 c -0.88222,-0.882224 -0.88222,-2.302508 -0.002,-3.184733 l 3.40044,-3.400441 c -1.54389,-2.215255 -2.62728,-4.774674 -3.11687,-7.544955 h -4.81588 c -1.24335,0 -2.25161,-1.005833 -2.25161,-2.246764 V 38.0905 c 0,-1.245779 1.00826,-2.249187 2.25161,-2.249187 h 4.81588 c 0.48959,-2.770281 1.56813,-5.327275 3.11687,-7.544954 l -3.40044,-3.402864 c -0.8798,-0.87253 -0.8798,-2.297661 0.002,-3.177462 l 1.58995,-1.589942 c 0.8798,-0.882224 2.3025,-0.882224 3.18473,0 l 3.39559,3.398017 c 2.21526,-1.543892 4.7771,-2.627283 7.542533,-3.121716 v -4.813454 c 0,-1.245778 1.005833,-2.249187 2.249187,-2.249187 h 2.251611 c 1.243354,0 2.251611,1.003409 2.251611,2.249187 v 4.813454 c 2.765433,0.494433 5.322429,1.577824 7.542532,3.121716 l 3.398017,-3.398017 c 0.882224,-0.884648 2.300085,-0.882224 3.182309,0 l 1.589942,1.589942 c 0.879801,0.879801 0.882224,2.304932 0,3.177462 l -3.400441,3.402864 c 1.54874,2.217679 2.627283,4.774673 3.119293,7.544954 h 4.818301 c 1.243355,0 2.246763,1.003408 2.246763,2.249187 v 2.249186 c 0,1.240931 -1.003408,2.246764 -2.246763,2.246764 M -137.971,96.586375 c -6.21193,0 -11.24594,-5.038857 -11.24594,-11.248358 0,-6.214349 5.03401,-11.250782 11.24594,-11.250782 6.21435,0 11.25078,5.036433 11.25078,11.250782 0,6.209501 -5.03643,11.248358 -11.25078,11.248358 m 0,-31.500735 c -11.18292,0 -20.24511,9.064611 -20.24511,20.252377 0,11.180495 9.06219,20.245103 20.24511,20.245103 11.18534,0 20.24995,-9.064608 20.24995,-20.245103 0,-11.187766 -9.06461,-20.252377 -20.24995,-20.252377 m 23.02266,-10.623049 -3.54829,6.146485 c 1.95107,1.541469 3.71552,3.303496 5.25457,5.254569 l 6.14648,-3.548289 c 1.08097,-0.622889 2.45278,-0.252064 3.07809,0.824056 l 2.24192,3.8973 c 0.62773,1.078544 0.25933,2.452777 -0.81921,3.073243 l -6.13921,3.545862 c 0.90888,2.273424 1.54631,4.677727 1.90502,7.181402 h 7.106266 c 1.245778,0 2.251611,1.003409 2.251611,2.246763 v 4.503222 c 0,1.24093 -1.005833,2.249187 -2.251611,2.249187 h -7.106266 c -0.35871,2.501251 -0.99614,4.910401 -1.90502,7.183825 l 6.13921,3.541014 c 1.07854,0.62531 1.44694,1.99712 0.82406,3.07567 l -2.24677,3.8973 c -0.62531,1.07612 -1.99954,1.44694 -3.07809,0.82405 l -6.14648,-3.55071 c -1.53905,1.95592 -3.3035,3.7131 -5.25457,5.25699 l 3.54829,6.14649 c 0.62289,1.07612 0.25691,2.45035 -0.82163,3.07809 l -3.8973,2.24918 c -1.0737,0.61562 -2.45036,0.24964 -3.07567,-0.8289 l -3.54344,-6.13921 c -2.27342,0.9113 -4.68257,1.54874 -7.18382,1.90502 v 7.10869 c 0,1.24335 -1.00341,2.25161 -2.24919,2.25161 h -4.49837 c -1.24578,0 -2.24919,-1.00826 -2.24919,-2.25161 v -7.10869 c -2.50125,-0.35628 -4.9104,-0.99372 -7.18383,-1.90502 l -3.54343,6.13921 c -0.62047,1.07854 -1.99713,1.44452 -3.07325,0.82406 l -3.8973,-2.24919 c -1.07612,-0.62289 -1.44694,-1.99712 -0.82647,-3.07324 l 3.55071,-6.14649 c -1.9535,-1.54389 -3.7131,-3.30107 -5.25457,-5.25699 l -6.14649,3.55071 c -1.07854,0.62289 -2.4552,0.25207 -3.07324,-0.82648 l -2.24919,-3.89487 c -0.62288,-1.0737 -0.25448,-2.45036 0.82164,-3.07567 l 6.13679,-3.541014 c -0.90646,-2.273424 -1.5439,-4.682574 -1.9026,-7.183825 h -7.10869 c -1.24336,0 -2.24919,-1.008257 -2.24919,-2.249187 v -4.503222 c 0,-1.243354 1.00583,-2.246763 2.24919,-2.246763 h 7.10869 c 0.3587,-2.503675 0.99614,-4.907978 1.9026,-7.181402 l -6.13679,-3.545862 c -1.07855,-0.620466 -1.44695,-1.994699 -0.82164,-3.073243 l 2.24919,-3.8973 c 0.61804,-1.078544 1.9947,-1.446945 3.07324,-0.824056 l 6.14649,3.548289 c 1.54147,-1.951073 3.30107,-3.7131 5.25457,-5.254569 l -3.55071,-6.146485 c -0.62047,-1.078543 -0.25207,-2.452777 0.82647,-3.070818 l 3.8973,-2.251611 c 1.07612,-0.620465 2.44793,-0.252064 3.07325,0.819208 l 3.54343,6.141638 c 2.27343,-0.908885 4.68258,-1.546316 7.18383,-1.905023 v -7.106267 c 0,-1.243354 1.00341,-2.251611 2.24919,-2.251611 h 4.49837 c 1.24578,0 2.24919,1.008257 2.24919,2.251611 v 7.106267 c 2.50125,0.358707 4.9104,0.996138 7.18382,1.905023 l 3.54344,-6.141638 c 0.62531,-1.071272 2.00197,-1.439673 3.07567,-0.819208 l 3.8973,2.251611 c 1.07612,0.618041 1.44452,1.992275 0.82163,3.070818"
         style="fill:#ffffff;fill-opacity:1;fill-rule:nonzero;stroke:none;stroke-width:2.42369"
         id="path1241" />
    </g>
  </g>
</svg>
