<svg xmlns="http://www.w3.org/2000/svg" version="1.1" xmlns:xlink="http://www.w3.org/1999/xlink" xmlns:svgjs="http://svgjs.com/svgjs" width="1440" height="250" preserveAspectRatio="none" viewBox="0 0 1440 250"><g mask="url(&quot;#SvgjsMask1003&quot;)" fill="none"><path d="M28 250L278 0L455 0L205 250z" fill="url(#SvgjsLinearGradient1004)"></path><path d="M242.60000000000002 250L492.6 0L653.1 0L403.1 250z" fill="url(#SvgjsLinearGradient1004)"></path><path d="M493.20000000000005 250L743.2 0L923.2 0L673.2 250z" fill="url(#SvgjsLinearGradient1004)"></path><path d="M743.8000000000001 250L993.8000000000001 0L1125.8000000000002 0L875.8000000000001 250z" fill="url(#SvgjsLinearGradient1004)"></path><path d="M1394 250L1144 0L1058.5 0L1308.5 250z" fill="url(#SvgjsLinearGradient1005)"></path><path d="M1166.4 250L916.4000000000001 0L845.9000000000001 0L1095.9 250z" fill="url(#SvgjsLinearGradient1005)"></path><path d="M942.8 250L692.8 0L365.79999999999995 0L615.8 250z" fill="url(#SvgjsLinearGradient1005)"></path><path d="M707.1999999999999 250L457.19999999999993 0L113.69999999999993 0L363.69999999999993 250z" fill="url(#SvgjsLinearGradient1005)"></path><path d="M1304.120415738112 250L1440 114.12041573811197L1440 250z" fill="url(#SvgjsLinearGradient1004)"></path><path d="M0 250L135.87958426188803 250L 0 114.12041573811197z" fill="url(#SvgjsLinearGradient1005)"></path></g><defs><mask id="SvgjsMask1003"><rect width="1440" height="250" fill="#ffffff"></rect></mask><linearGradient x1="0%" y1="100%" x2="100%" y2="0%" id="SvgjsLinearGradient1004"><stop stop-color="rgba(15, 70, 185, 0.2)" offset="0"></stop><stop stop-opacity="0" stop-color="rgba(15, 70, 185, 0.2)" offset="0.66"></stop></linearGradient><linearGradient x1="100%" y1="100%" x2="0%" y2="0%" id="SvgjsLinearGradient1005"><stop stop-color="rgba(15, 70, 185, 0.2)" offset="0"></stop><stop stop-opacity="0" stop-color="rgba(15, 70, 185, 0.2)" offset="0.66"></stop></linearGradient></defs></svg>